<mxfile host="65bd71144e">
    <diagram id="Uh6QsPy6_SlyniQGsWLO" name="Page-1">
        <mxGraphModel dx="1293" dy="859" grid="1" gridSize="10" guides="1" tooltips="1" connect="1" arrows="1" fold="1" page="1" pageScale="1" pageWidth="610" pageHeight="1250" background="#ffffff" math="0" shadow="0">
            <root>
                <mxCell id="0"/>
                <mxCell id="1" parent="0"/>
                <mxCell id="5" value="" style="rounded=1;whiteSpace=wrap;html=1;fillColor=#f5f5f5;fontColor=#333333;strokeColor=none;" parent="1" vertex="1">
                    <mxGeometry x="1" width="150" height="370" as="geometry"/>
                </mxCell>
                <mxCell id="6" value="" style="rounded=1;whiteSpace=wrap;html=1;fillColor=#ffe6cc;strokeColor=none;" parent="1" vertex="1">
                    <mxGeometry x="211" width="150" height="1240" as="geometry"/>
                </mxCell>
                <mxCell id="32" value="" style="rounded=1;whiteSpace=wrap;html=1;fillColor=#f5f5f5;strokeColor=#82b366;fontColor=#333333;fontFamily=楷体;fontSize=15;" parent="1" vertex="1">
                    <mxGeometry x="221" y="200" width="130" height="70" as="geometry"/>
                </mxCell>
                <mxCell id="7" value="" style="rounded=1;whiteSpace=wrap;html=1;fillColor=#f8cecc;strokeColor=none;" parent="1" vertex="1">
                    <mxGeometry x="431" width="150" height="1180" as="geometry"/>
                </mxCell>
                <mxCell id="10" value="采购人" style="text;html=1;align=center;verticalAlign=middle;resizable=0;points=[];autosize=1;strokeColor=none;fillColor=none;fontStyle=1;fontSize=18;fontFamily=黑体;" parent="1" vertex="1">
                    <mxGeometry x="36" y="5" width="80" height="40" as="geometry"/>
                </mxCell>
                <mxCell id="12" value="代理机构" style="text;html=1;align=center;verticalAlign=middle;resizable=0;points=[];autosize=1;strokeColor=none;fillColor=none;fontStyle=1;fontSize=18;fontFamily=黑体;" parent="1" vertex="1">
                    <mxGeometry x="236" y="5" width="100" height="40" as="geometry"/>
                </mxCell>
                <mxCell id="13" value="供应商" style="text;html=1;align=center;verticalAlign=middle;resizable=0;points=[];autosize=1;strokeColor=none;fillColor=none;fontSize=18;fontStyle=1;fontFamily=黑体;" parent="1" vertex="1">
                    <mxGeometry x="466" y="5" width="80" height="40" as="geometry"/>
                </mxCell>
                <mxCell id="22" style="edgeStyle=none;html=1;exitX=0.5;exitY=1;exitDx=0;exitDy=0;entryX=0.5;entryY=0;entryDx=0;entryDy=0;fontFamily=楷体;fontSize=15;fillColor=#dae8fc;strokeColor=#6c8ebf;strokeWidth=2;" parent="1" source="15" target="16" edge="1">
                    <mxGeometry relative="1" as="geometry"/>
                </mxCell>
                <mxCell id="15" value="编辑项目信息" style="rounded=1;whiteSpace=wrap;html=1;fontFamily=楷体;fontSize=15;" parent="1" vertex="1">
                    <mxGeometry x="23.5" y="50" width="105" height="50" as="geometry"/>
                </mxCell>
                <mxCell id="23" style="edgeStyle=none;html=1;exitX=0.5;exitY=1;exitDx=0;exitDy=0;entryX=0.5;entryY=0;entryDx=0;entryDy=0;fontFamily=楷体;fontSize=15;fillColor=#dae8fc;strokeColor=#6c8ebf;strokeWidth=2;" parent="1" source="16" target="17" edge="1">
                    <mxGeometry relative="1" as="geometry"/>
                </mxCell>
                <mxCell id="16" value="上传采购文档" style="rounded=1;whiteSpace=wrap;html=1;fillColor=#dae8fc;strokeColor=#6c8ebf;fontFamily=楷体;fontSize=15;" parent="1" vertex="1">
                    <mxGeometry x="23.5" y="130" width="105" height="50" as="geometry"/>
                </mxCell>
                <mxCell id="24" style="edgeStyle=none;html=1;exitX=0.5;exitY=1;exitDx=0;exitDy=0;entryX=0.5;entryY=0;entryDx=0;entryDy=0;fontFamily=楷体;fontSize=15;fillColor=#dae8fc;strokeColor=#6c8ebf;strokeWidth=2;" parent="1" source="17" target="18" edge="1">
                    <mxGeometry relative="1" as="geometry"/>
                </mxCell>
                <mxCell id="17" value="选择代理方" style="rounded=1;whiteSpace=wrap;html=1;fillColor=#dae8fc;strokeColor=#6c8ebf;fontFamily=楷体;fontSize=15;" parent="1" vertex="1">
                    <mxGeometry x="23.5" y="210" width="105" height="50" as="geometry"/>
                </mxCell>
                <mxCell id="49" style="edgeStyle=orthogonalEdgeStyle;html=1;exitX=1;exitY=0.5;exitDx=0;exitDy=0;entryX=0;entryY=0.5;entryDx=0;entryDy=0;fontFamily=楷体;fontSize=15;fillColor=#dae8fc;strokeColor=#6c8ebf;strokeWidth=2;" parent="1" source="18" target="25" edge="1">
                    <mxGeometry relative="1" as="geometry"/>
                </mxCell>
                <mxCell id="18" value="发布招标委托" style="rounded=1;whiteSpace=wrap;html=1;fillColor=#dae8fc;strokeColor=#6c8ebf;fontFamily=楷体;fontSize=15;" parent="1" vertex="1">
                    <mxGeometry x="23.5" y="290" width="105" height="50" as="geometry"/>
                </mxCell>
                <mxCell id="40" style="edgeStyle=none;html=1;exitX=0.5;exitY=1;exitDx=0;exitDy=0;entryX=0.5;entryY=0;entryDx=0;entryDy=0;fontFamily=楷体;fontSize=15;fillColor=#d5e8d4;strokeColor=#82b366;strokeWidth=2;" parent="1" source="25" target="26" edge="1">
                    <mxGeometry relative="1" as="geometry"/>
                </mxCell>
                <mxCell id="25" value="查看委托信息" style="rounded=1;whiteSpace=wrap;html=1;fillColor=#d5e8d4;strokeColor=#82b366;fontFamily=楷体;fontSize=15;" parent="1" vertex="1">
                    <mxGeometry x="233.5" y="50" width="105" height="50" as="geometry"/>
                </mxCell>
                <mxCell id="80" style="edgeStyle=orthogonalEdgeStyle;html=1;exitX=0.5;exitY=1;exitDx=0;exitDy=0;entryX=0.5;entryY=0;entryDx=0;entryDy=0;fontFamily=楷体;fontSize=15;fillColor=#d5e8d4;strokeColor=#82b366;strokeWidth=2;" parent="1" source="26" target="28" edge="1">
                    <mxGeometry relative="1" as="geometry"/>
                </mxCell>
                <mxCell id="26" value="接受采购委托" style="rounded=1;whiteSpace=wrap;html=1;fillColor=#d5e8d4;strokeColor=#82b366;fontFamily=楷体;fontSize=15;" parent="1" vertex="1">
                    <mxGeometry x="233.5" y="130" width="105" height="50" as="geometry"/>
                </mxCell>
                <mxCell id="79" style="edgeStyle=orthogonalEdgeStyle;html=1;exitX=0.5;exitY=1;exitDx=0;exitDy=0;fontFamily=楷体;fontSize=15;fillColor=#d5e8d4;strokeColor=#82b366;strokeWidth=2;" parent="1" source="28" target="31" edge="1">
                    <mxGeometry relative="1" as="geometry"/>
                </mxCell>
                <mxCell id="28" value="招标" style="rounded=1;whiteSpace=wrap;html=1;fontFamily=楷体;fontSize=15;fillColor=#d5e8d4;strokeColor=#82b366;" parent="1" vertex="1">
                    <mxGeometry x="224" y="231" width="37" height="30" as="geometry"/>
                </mxCell>
                <mxCell id="29" value="询比" style="rounded=1;whiteSpace=wrap;html=1;fontFamily=楷体;fontSize=15;dashed=1;fillColor=#d5e8d4;strokeColor=#82b366;" parent="1" vertex="1">
                    <mxGeometry x="267.5" y="231" width="37" height="30" as="geometry"/>
                </mxCell>
                <mxCell id="30" value="..." style="rounded=1;whiteSpace=wrap;html=1;fontFamily=楷体;fontSize=15;dashed=1;fillColor=#d5e8d4;strokeColor=#82b366;" parent="1" vertex="1">
                    <mxGeometry x="311" y="231" width="37" height="30" as="geometry"/>
                </mxCell>
                <mxCell id="43" style="edgeStyle=none;html=1;exitX=0.5;exitY=1;exitDx=0;exitDy=0;entryX=0.5;entryY=0;entryDx=0;entryDy=0;fontFamily=楷体;fontSize=15;fillColor=#d5e8d4;strokeColor=#82b366;strokeWidth=2;" parent="1" source="31" target="34" edge="1">
                    <mxGeometry relative="1" as="geometry"/>
                </mxCell>
                <mxCell id="31" value="编辑招标信息" style="rounded=1;whiteSpace=wrap;html=1;fillColor=#d5e8d4;strokeColor=#82b366;fontFamily=楷体;fontSize=15;" parent="1" vertex="1">
                    <mxGeometry x="233.5" y="290" width="105" height="50" as="geometry"/>
                </mxCell>
                <mxCell id="33" value="选择采购方式" style="text;html=1;align=center;verticalAlign=middle;resizable=0;points=[];autosize=1;strokeColor=none;fillColor=none;fontSize=15;fontFamily=楷体;" parent="1" vertex="1">
                    <mxGeometry x="231" y="200" width="110" height="30" as="geometry"/>
                </mxCell>
                <mxCell id="48" style="edgeStyle=orthogonalEdgeStyle;html=1;exitX=1;exitY=0.5;exitDx=0;exitDy=0;entryX=0;entryY=0.5;entryDx=0;entryDy=0;fontFamily=楷体;fontSize=15;fillColor=#d5e8d4;strokeColor=#82b366;strokeWidth=2;" parent="1" source="34" target="35" edge="1">
                    <mxGeometry relative="1" as="geometry">
                        <Array as="points">
                            <mxPoint x="371" y="395"/>
                            <mxPoint x="371" y="75"/>
                        </Array>
                    </mxGeometry>
                </mxCell>
                <mxCell id="34" value="发布招标公告" style="rounded=1;whiteSpace=wrap;html=1;fillColor=#d5e8d4;strokeColor=#82b366;fontFamily=楷体;fontSize=15;" parent="1" vertex="1">
                    <mxGeometry x="233.5" y="370" width="105" height="50" as="geometry"/>
                </mxCell>
                <mxCell id="44" style="edgeStyle=none;html=1;exitX=0.5;exitY=1;exitDx=0;exitDy=0;entryX=0.5;entryY=0;entryDx=0;entryDy=0;fontFamily=楷体;fontSize=15;fillColor=#e1d5e7;strokeColor=#9673a6;strokeWidth=2;" parent="1" source="35" target="36" edge="1">
                    <mxGeometry relative="1" as="geometry"/>
                </mxCell>
                <mxCell id="35" value="预览标书" style="rounded=1;whiteSpace=wrap;html=1;fillColor=#e1d5e7;strokeColor=#9673a6;fontFamily=楷体;fontSize=15;" parent="1" vertex="1">
                    <mxGeometry x="453.5" y="50" width="105" height="50" as="geometry"/>
                </mxCell>
                <mxCell id="36" value="发起投标申请" style="rounded=1;whiteSpace=wrap;html=1;fillColor=#e1d5e7;strokeColor=#9673a6;fontFamily=楷体;fontSize=15;" parent="1" vertex="1">
                    <mxGeometry x="453.5" y="130" width="105" height="50" as="geometry"/>
                </mxCell>
                <mxCell id="51" value="" style="rounded=1;whiteSpace=wrap;html=1;fillColor=#f5f5f5;strokeColor=#9f7ba9;fontColor=#333333;fontFamily=楷体;fontSize=15;" parent="1" vertex="1">
                    <mxGeometry x="441" y="200" width="130" height="70" as="geometry"/>
                </mxCell>
                <mxCell id="52" value="审核方式" style="text;html=1;align=center;verticalAlign=middle;resizable=0;points=[];autosize=1;strokeColor=none;fillColor=none;fontSize=15;fontFamily=楷体;" parent="1" vertex="1">
                    <mxGeometry x="466" y="200" width="80" height="30" as="geometry"/>
                </mxCell>
                <mxCell id="63" value="人工" style="rounded=1;whiteSpace=wrap;html=1;fontFamily=楷体;fontSize=15;fillColor=#e1d5e7;strokeColor=#9673a6;" parent="1" vertex="1">
                    <mxGeometry x="456" y="231" width="37" height="30" as="geometry"/>
                </mxCell>
                <mxCell id="77" style="edgeStyle=orthogonalEdgeStyle;html=1;exitX=1;exitY=0.5;exitDx=0;exitDy=0;entryX=1;entryY=0.5;entryDx=0;entryDy=0;fontFamily=楷体;fontSize=15;dashed=1;fillColor=#e1d5e7;strokeColor=#9673a6;strokeWidth=2;" parent="1" source="64" target="68" edge="1">
                    <mxGeometry relative="1" as="geometry">
                        <Array as="points">
                            <mxPoint x="601" y="246"/>
                            <mxPoint x="601" y="395"/>
                        </Array>
                    </mxGeometry>
                </mxCell>
                <mxCell id="64" value="无" style="rounded=1;whiteSpace=wrap;html=1;fontFamily=楷体;fontSize=15;dashed=1;fillColor=#e1d5e7;strokeColor=#9673a6;" parent="1" vertex="1">
                    <mxGeometry x="519" y="231" width="37" height="30" as="geometry"/>
                </mxCell>
                <mxCell id="66" style="edgeStyle=orthogonalEdgeStyle;html=1;exitX=1;exitY=0.5;exitDx=0;exitDy=0;fontFamily=楷体;fontSize=15;fillColor=#e1d5e7;strokeColor=#9673a6;strokeWidth=2;" parent="1" source="65" target="36" edge="1">
                    <mxGeometry relative="1" as="geometry">
                        <mxPoint x="551" y="315" as="sourcePoint"/>
                        <mxPoint x="563.5" y="155" as="targetPoint"/>
                        <Array as="points">
                            <mxPoint x="591" y="315"/>
                            <mxPoint x="591" y="155"/>
                        </Array>
                    </mxGeometry>
                </mxCell>
                <mxCell id="92" value="通过" style="edgeLabel;html=1;align=center;verticalAlign=middle;resizable=0;points=[];fontSize=15;fontFamily=楷体;labelBackgroundColor=none;" parent="66" vertex="1" connectable="0">
                    <mxGeometry x="0.3043" relative="1" as="geometry">
                        <mxPoint as="offset"/>
                    </mxGeometry>
                </mxCell>
                <mxCell id="69" style="edgeStyle=orthogonalEdgeStyle;html=1;exitX=0.5;exitY=1;exitDx=0;exitDy=0;entryX=0.5;entryY=0;entryDx=0;entryDy=0;fontFamily=楷体;fontSize=15;fillColor=#e1d5e7;strokeColor=#9673a6;" parent="1" source="65" target="68" edge="1">
                    <mxGeometry relative="1" as="geometry"/>
                </mxCell>
                <mxCell id="65" value="等待审核" style="rhombus;whiteSpace=wrap;html=1;fontFamily=楷体;fontSize=15;fillColor=#e1d5e7;strokeColor=#9673a6;" parent="1" vertex="1">
                    <mxGeometry x="466" y="285" width="80" height="60" as="geometry"/>
                </mxCell>
                <mxCell id="72" style="edgeStyle=orthogonalEdgeStyle;html=1;exitX=0.5;exitY=1;exitDx=0;exitDy=0;entryX=0.5;entryY=0;entryDx=0;entryDy=0;fontFamily=楷体;fontSize=15;fillColor=#e1d5e7;strokeColor=#9673a6;strokeWidth=2;" parent="1" source="68" target="70" edge="1">
                    <mxGeometry relative="1" as="geometry"/>
                </mxCell>
                <mxCell id="68" value="支付标书费用" style="rounded=1;whiteSpace=wrap;html=1;fillColor=#e1d5e7;strokeColor=#9673a6;fontFamily=楷体;fontSize=15;" parent="1" vertex="1">
                    <mxGeometry x="453.5" y="370" width="105" height="50" as="geometry"/>
                </mxCell>
                <mxCell id="73" style="edgeStyle=orthogonalEdgeStyle;html=1;exitX=0.5;exitY=1;exitDx=0;exitDy=0;fontFamily=楷体;fontSize=15;fillColor=#e1d5e7;strokeColor=#9673a6;strokeWidth=2;" parent="1" source="70" target="71" edge="1">
                    <mxGeometry relative="1" as="geometry"/>
                </mxCell>
                <mxCell id="70" value="下载查看招标文件" style="rounded=1;whiteSpace=wrap;html=1;fillColor=#e1d5e7;strokeColor=#9673a6;fontFamily=楷体;fontSize=15;" parent="1" vertex="1">
                    <mxGeometry x="453.5" y="450" width="105" height="50" as="geometry"/>
                </mxCell>
                <mxCell id="82" style="edgeStyle=orthogonalEdgeStyle;html=1;exitX=0.5;exitY=1;exitDx=0;exitDy=0;entryX=0.5;entryY=0;entryDx=0;entryDy=0;fontFamily=楷体;fontSize=15;fillColor=#e1d5e7;strokeColor=#9673a6;strokeWidth=2;" parent="1" source="71" target="78" edge="1">
                    <mxGeometry relative="1" as="geometry"/>
                </mxCell>
                <mxCell id="71" value="支付保证金" style="rounded=1;whiteSpace=wrap;html=1;fillColor=#e1d5e7;strokeColor=#9673a6;fontFamily=楷体;fontSize=15;" parent="1" vertex="1">
                    <mxGeometry x="453.5" y="534.5" width="105" height="50" as="geometry"/>
                </mxCell>
                <mxCell id="76" style="edgeStyle=orthogonalEdgeStyle;html=1;exitX=1;exitY=0.75;exitDx=0;exitDy=0;entryX=0;entryY=0.5;entryDx=0;entryDy=0;fontFamily=楷体;fontSize=15;fillColor=#d5e8d4;strokeColor=#82b366;strokeWidth=2;" parent="1" source="74" target="65" edge="1">
                    <mxGeometry relative="1" as="geometry">
                        <Array as="points">
                            <mxPoint x="391" y="488"/>
                            <mxPoint x="391" y="315"/>
                        </Array>
                    </mxGeometry>
                </mxCell>
                <mxCell id="91" value="审核结果" style="edgeLabel;html=1;align=center;verticalAlign=middle;resizable=0;points=[];fontSize=15;fontFamily=楷体;labelBackgroundColor=none;" parent="76" vertex="1" connectable="0">
                    <mxGeometry x="-0.7323" relative="1" as="geometry">
                        <mxPoint as="offset"/>
                    </mxGeometry>
                </mxCell>
                <mxCell id="90" style="edgeStyle=orthogonalEdgeStyle;html=1;exitX=0.5;exitY=1;exitDx=0;exitDy=0;entryX=0.5;entryY=0;entryDx=0;entryDy=0;fontFamily=楷体;fontSize=15;fillColor=#d5e8d4;strokeColor=#82b366;strokeWidth=2;" parent="1" source="74" target="84" edge="1">
                    <mxGeometry relative="1" as="geometry"/>
                </mxCell>
                <mxCell id="74" value="审核投标" style="rounded=1;whiteSpace=wrap;html=1;fillColor=#d5e8d4;strokeColor=#82b366;fontFamily=楷体;fontSize=15;" parent="1" vertex="1">
                    <mxGeometry x="233.5" y="450" width="105" height="50" as="geometry"/>
                </mxCell>
                <mxCell id="75" style="edgeStyle=orthogonalEdgeStyle;html=1;exitX=0;exitY=0.5;exitDx=0;exitDy=0;entryX=1;entryY=0.25;entryDx=0;entryDy=0;fontFamily=楷体;fontSize=15;fillColor=#e1d5e7;strokeColor=#9673a6;strokeWidth=2;" parent="1" source="63" target="74" edge="1">
                    <mxGeometry relative="1" as="geometry">
                        <Array as="points">
                            <mxPoint x="381" y="246"/>
                            <mxPoint x="381" y="463"/>
                        </Array>
                    </mxGeometry>
                </mxCell>
                <mxCell id="83" style="edgeStyle=orthogonalEdgeStyle;html=1;exitX=0.5;exitY=1;exitDx=0;exitDy=0;entryX=0.5;entryY=0;entryDx=0;entryDy=0;fontFamily=楷体;fontSize=15;fillColor=#e1d5e7;strokeColor=#9673a6;strokeWidth=2;" parent="1" source="78" target="81" edge="1">
                    <mxGeometry relative="1" as="geometry"/>
                </mxCell>
                <mxCell id="78" value="上传加密投标文件" style="rounded=1;whiteSpace=wrap;html=1;fillColor=#e1d5e7;strokeColor=#9673a6;fontFamily=楷体;fontSize=15;" parent="1" vertex="1">
                    <mxGeometry x="453.5" y="620" width="105" height="50" as="geometry"/>
                </mxCell>
                <mxCell id="60" style="edgeStyle=orthogonalEdgeStyle;html=1;exitX=0.5;exitY=1;exitDx=0;exitDy=0;fontFamily=楷体;fontSize=15;fillColor=#e1d5e7;strokeColor=#9673a6;strokeWidth=2;" parent="1" source="36" target="63" edge="1">
                    <mxGeometry relative="1" as="geometry"/>
                </mxCell>
                <mxCell id="98" style="edgeStyle=orthogonalEdgeStyle;html=1;exitX=0;exitY=0.5;exitDx=0;exitDy=0;entryX=1;entryY=0.25;entryDx=0;entryDy=0;fontFamily=楷体;fontSize=15;fillColor=#e1d5e7;strokeColor=#9673a6;strokeWidth=2;" parent="1" source="81" target="88" edge="1">
                    <mxGeometry relative="1" as="geometry">
                        <Array as="points">
                            <mxPoint x="411" y="735"/>
                            <mxPoint x="411" y="703"/>
                        </Array>
                    </mxGeometry>
                </mxCell>
                <mxCell id="81" value="等待项目开标" style="rounded=1;whiteSpace=wrap;html=1;fillColor=#e1d5e7;strokeColor=#9673a6;fontFamily=楷体;fontSize=15;" parent="1" vertex="1">
                    <mxGeometry x="453.5" y="710" width="105" height="50" as="geometry"/>
                </mxCell>
                <mxCell id="87" style="edgeStyle=orthogonalEdgeStyle;html=1;exitX=0.5;exitY=1;exitDx=0;exitDy=0;entryX=0.5;entryY=0;entryDx=0;entryDy=0;fontFamily=楷体;fontSize=15;fillColor=#d5e8d4;strokeColor=#82b366;strokeWidth=2;" parent="1" source="84" target="85" edge="1">
                    <mxGeometry relative="1" as="geometry"/>
                </mxCell>
                <mxCell id="84" value="等待报名截止" style="rounded=1;whiteSpace=wrap;html=1;fillColor=#d5e8d4;strokeColor=#82b366;fontFamily=楷体;fontSize=15;" parent="1" vertex="1">
                    <mxGeometry x="233.5" y="534.5" width="105" height="50" as="geometry"/>
                </mxCell>
                <mxCell id="89" style="edgeStyle=orthogonalEdgeStyle;html=1;exitX=0.5;exitY=1;exitDx=0;exitDy=0;entryX=0.5;entryY=0;entryDx=0;entryDy=0;fontFamily=楷体;fontSize=15;fillColor=#d5e8d4;strokeColor=#82b366;strokeWidth=2;" parent="1" source="85" target="88" edge="1">
                    <mxGeometry relative="1" as="geometry"/>
                </mxCell>
                <mxCell id="85" value="等待开标" style="rounded=1;whiteSpace=wrap;html=1;fillColor=#d5e8d4;strokeColor=#82b366;fontFamily=楷体;fontSize=15;" parent="1" vertex="1">
                    <mxGeometry x="233.5" y="610" width="105" height="50" as="geometry"/>
                </mxCell>
                <mxCell id="99" style="edgeStyle=orthogonalEdgeStyle;html=1;exitX=1;exitY=0.75;exitDx=0;exitDy=0;entryX=0;entryY=0.5;entryDx=0;entryDy=0;fontFamily=楷体;fontSize=15;fillColor=#d5e8d4;strokeColor=#82b366;strokeWidth=2;" parent="1" source="88" target="95" edge="1">
                    <mxGeometry relative="1" as="geometry">
                        <Array as="points">
                            <mxPoint x="381" y="728"/>
                            <mxPoint x="381" y="815"/>
                        </Array>
                    </mxGeometry>
                </mxCell>
                <mxCell id="101" style="edgeStyle=orthogonalEdgeStyle;html=1;exitX=0.5;exitY=1;exitDx=0;exitDy=0;entryX=0.5;entryY=0;entryDx=0;entryDy=0;fontFamily=楷体;fontSize=15;fillColor=#d5e8d4;strokeColor=#82b366;strokeWidth=2;" parent="1" source="88" target="100" edge="1">
                    <mxGeometry relative="1" as="geometry"/>
                </mxCell>
                <mxCell id="88" value="项目开标&lt;br style=&quot;font-size: 15px;&quot;&gt;解密文件" style="rounded=1;whiteSpace=wrap;html=1;fillColor=#d5e8d4;strokeColor=#82b366;fontFamily=楷体;fontSize=15;" parent="1" vertex="1">
                    <mxGeometry x="233.5" y="690" width="105" height="50" as="geometry"/>
                </mxCell>
                <mxCell id="94" value="&lt;span style=&quot;font-size: 15px;&quot;&gt;未通过&lt;/span&gt;" style="text;html=1;align=center;verticalAlign=middle;resizable=0;points=[];autosize=1;strokeColor=none;fillColor=none;fontSize=15;fontFamily=楷体;labelBackgroundColor=none;" parent="1" vertex="1">
                    <mxGeometry x="493.5" y="340" width="70" height="30" as="geometry"/>
                </mxCell>
                <mxCell id="123" style="edgeStyle=orthogonalEdgeStyle;html=1;exitX=0;exitY=0.75;exitDx=0;exitDy=0;entryX=1;entryY=0.25;entryDx=0;entryDy=0;fontFamily=楷体;fontSize=15;fillColor=#e1d5e7;strokeColor=#9673a6;strokeWidth=2;" parent="1" source="95" target="102" edge="1">
                    <mxGeometry relative="1" as="geometry"/>
                </mxCell>
                <mxCell id="95" value="等待项目评标" style="rounded=1;whiteSpace=wrap;html=1;fillColor=#e1d5e7;strokeColor=#9673a6;fontFamily=楷体;fontSize=15;" parent="1" vertex="1">
                    <mxGeometry x="453.5" y="790" width="105" height="50" as="geometry"/>
                </mxCell>
                <mxCell id="103" style="edgeStyle=orthogonalEdgeStyle;html=1;exitX=0.5;exitY=1;exitDx=0;exitDy=0;entryX=0.5;entryY=0;entryDx=0;entryDy=0;fontFamily=楷体;fontSize=15;fillColor=#d5e8d4;strokeColor=#82b366;strokeWidth=2;" parent="1" source="100" target="102" edge="1">
                    <mxGeometry relative="1" as="geometry"/>
                </mxCell>
                <mxCell id="100" value="专家抽取" style="rounded=1;whiteSpace=wrap;html=1;fillColor=#d5e8d4;strokeColor=#82b366;fontFamily=楷体;fontSize=15;" parent="1" vertex="1">
                    <mxGeometry x="233.5" y="770" width="105" height="50" as="geometry"/>
                </mxCell>
                <mxCell id="110" style="edgeStyle=orthogonalEdgeStyle;html=1;exitX=0.5;exitY=1;exitDx=0;exitDy=0;entryX=0.5;entryY=0;entryDx=0;entryDy=0;fontFamily=楷体;fontSize=15;fillColor=#d5e8d4;strokeColor=#82b366;strokeWidth=2;" parent="1" source="102" target="104" edge="1">
                    <mxGeometry relative="1" as="geometry"/>
                </mxCell>
                <mxCell id="102" value="开始评标" style="rounded=1;whiteSpace=wrap;html=1;fillColor=#d5e8d4;strokeColor=#82b366;fontFamily=楷体;fontSize=15;" parent="1" vertex="1">
                    <mxGeometry x="233.5" y="850" width="105" height="50" as="geometry"/>
                </mxCell>
                <mxCell id="111" style="edgeStyle=orthogonalEdgeStyle;html=1;exitX=0.5;exitY=1;exitDx=0;exitDy=0;fontFamily=楷体;fontSize=15;fillColor=#d5e8d4;strokeColor=#82b366;strokeWidth=2;" parent="1" source="104" target="105" edge="1">
                    <mxGeometry relative="1" as="geometry"/>
                </mxCell>
                <mxCell id="104" value="等待专家评审" style="rounded=1;whiteSpace=wrap;html=1;fillColor=#d5e8d4;strokeColor=#82b366;fontFamily=楷体;fontSize=15;" parent="1" vertex="1">
                    <mxGeometry x="233.5" y="930" width="105" height="50" as="geometry"/>
                </mxCell>
                <mxCell id="112" style="edgeStyle=orthogonalEdgeStyle;html=1;exitX=0.5;exitY=1;exitDx=0;exitDy=0;entryX=0.5;entryY=0;entryDx=0;entryDy=0;fontFamily=楷体;fontSize=15;fillColor=#d5e8d4;strokeColor=#82b366;strokeWidth=2;" parent="1" source="105" target="106" edge="1">
                    <mxGeometry relative="1" as="geometry"/>
                </mxCell>
                <mxCell id="125" style="edgeStyle=orthogonalEdgeStyle;html=1;exitX=1;exitY=0.5;exitDx=0;exitDy=0;entryX=0;entryY=0.25;entryDx=0;entryDy=0;fontFamily=楷体;fontSize=15;fillColor=#d5e8d4;strokeColor=#82b366;strokeWidth=2;" parent="1" source="105" target="108" edge="1">
                    <mxGeometry relative="1" as="geometry">
                        <Array as="points">
                            <mxPoint x="371" y="1035"/>
                            <mxPoint x="371" y="882"/>
                        </Array>
                    </mxGeometry>
                </mxCell>
                <mxCell id="105" value="生成评审报告" style="rounded=1;whiteSpace=wrap;html=1;fillColor=#d5e8d4;strokeColor=#82b366;fontFamily=楷体;fontSize=15;" parent="1" vertex="1">
                    <mxGeometry x="233.5" y="1010" width="105" height="50" as="geometry"/>
                </mxCell>
                <mxCell id="113" style="edgeStyle=orthogonalEdgeStyle;html=1;exitX=0.5;exitY=1;exitDx=0;exitDy=0;entryX=0.5;entryY=0;entryDx=0;entryDy=0;fontFamily=楷体;fontSize=15;fillColor=#d5e8d4;strokeColor=#82b366;strokeWidth=2;" parent="1" source="106" target="107" edge="1">
                    <mxGeometry relative="1" as="geometry"/>
                </mxCell>
                <mxCell id="117" style="edgeStyle=orthogonalEdgeStyle;html=1;exitX=1;exitY=0.75;exitDx=0;exitDy=0;entryX=0;entryY=0.25;entryDx=0;entryDy=0;fontFamily=楷体;fontSize=15;fillColor=#d5e8d4;strokeColor=#82b366;strokeWidth=2;" parent="1" source="106" target="109" edge="1">
                    <mxGeometry relative="1" as="geometry"/>
                </mxCell>
                <mxCell id="106" value="确定并选择&lt;br style=&quot;font-size: 15px;&quot;&gt;公布候选人" style="rounded=1;whiteSpace=wrap;html=1;fillColor=#d5e8d4;strokeColor=#82b366;fontFamily=楷体;fontSize=15;" parent="1" vertex="1">
                    <mxGeometry x="233.5" y="1090" width="105" height="50" as="geometry"/>
                </mxCell>
                <mxCell id="120" style="edgeStyle=orthogonalEdgeStyle;html=1;exitX=1;exitY=0.75;exitDx=0;exitDy=0;entryX=0;entryY=0.5;entryDx=0;entryDy=0;fontFamily=楷体;fontSize=15;fillColor=#d5e8d4;strokeColor=#82b366;strokeWidth=2;" parent="1" source="107" target="119" edge="1">
                    <mxGeometry relative="1" as="geometry">
                        <Array as="points">
                            <mxPoint x="421" y="1207"/>
                            <mxPoint x="421" y="1055"/>
                        </Array>
                    </mxGeometry>
                </mxCell>
                <mxCell id="107" value="确定并选择&lt;br style=&quot;font-size: 15px;&quot;&gt;公布中标结果" style="rounded=1;whiteSpace=wrap;html=1;fillColor=#d5e8d4;strokeColor=#82b366;fontFamily=楷体;fontSize=15;" parent="1" vertex="1">
                    <mxGeometry x="233.5" y="1169" width="105" height="50" as="geometry"/>
                </mxCell>
                <mxCell id="121" style="edgeStyle=orthogonalEdgeStyle;html=1;exitX=0;exitY=0.75;exitDx=0;exitDy=0;entryX=1;entryY=0.25;entryDx=0;entryDy=0;fontFamily=楷体;fontSize=15;fillColor=#e1d5e7;strokeColor=#9673a6;strokeWidth=2;" parent="1" source="108" target="106" edge="1">
                    <mxGeometry relative="1" as="geometry">
                        <Array as="points">
                            <mxPoint x="381" y="908"/>
                            <mxPoint x="381" y="1102"/>
                        </Array>
                    </mxGeometry>
                </mxCell>
                <mxCell id="108" value="等待候选人公布" style="rounded=1;whiteSpace=wrap;html=1;fillColor=#e1d5e7;strokeColor=#9673a6;fontFamily=楷体;fontSize=15;" parent="1" vertex="1">
                    <mxGeometry x="453.5" y="870" width="105" height="50" as="geometry"/>
                </mxCell>
                <mxCell id="118" style="edgeStyle=orthogonalEdgeStyle;html=1;exitX=0;exitY=0.75;exitDx=0;exitDy=0;entryX=1;entryY=0.25;entryDx=0;entryDy=0;fontFamily=楷体;fontSize=15;fillColor=#e1d5e7;strokeColor=#9673a6;strokeWidth=2;" parent="1" source="109" target="107" edge="1">
                    <mxGeometry relative="1" as="geometry">
                        <Array as="points">
                            <mxPoint x="411" y="988"/>
                            <mxPoint x="411" y="1182"/>
                        </Array>
                    </mxGeometry>
                </mxCell>
                <mxCell id="109" value="等待中标结果" style="rounded=1;whiteSpace=wrap;html=1;fillColor=#e1d5e7;strokeColor=#9673a6;fontFamily=楷体;fontSize=15;" parent="1" vertex="1">
                    <mxGeometry x="453.5" y="950" width="105" height="50" as="geometry"/>
                </mxCell>
                <mxCell id="145" style="edgeStyle=orthogonalEdgeStyle;html=1;exitX=0.5;exitY=1;exitDx=0;exitDy=0;entryX=0.5;entryY=0;entryDx=0;entryDy=0;strokeWidth=2;fontFamily=黑体;fontSize=18;fillColor=#e1d5e7;strokeColor=#9673a6;" parent="1" source="119" target="144" edge="1">
                    <mxGeometry relative="1" as="geometry"/>
                </mxCell>
                <mxCell id="119" value="缴纳平台服务费" style="rounded=1;whiteSpace=wrap;html=1;fillColor=#e1d5e7;strokeColor=#9673a6;fontFamily=楷体;fontSize=15;" parent="1" vertex="1">
                    <mxGeometry x="453.5" y="1030" width="105" height="50" as="geometry"/>
                </mxCell>
                <mxCell id="126" value="编辑项目信息" style="rounded=1;whiteSpace=wrap;html=1;fillColor=#dae8fc;strokeColor=#6c8ebf;fontFamily=楷体;fontSize=15;" parent="1" vertex="1">
                    <mxGeometry x="23.5" y="50" width="105" height="50" as="geometry"/>
                </mxCell>
                <mxCell id="144" value="完成中标" style="rounded=1;whiteSpace=wrap;html=1;fillColor=#e1d5e7;strokeColor=#9673a6;fontFamily=楷体;fontSize=15;" parent="1" vertex="1">
                    <mxGeometry x="453.5" y="1110" width="105" height="50" as="geometry"/>
                </mxCell>
                <mxCell id="146" value="" style="rounded=1;whiteSpace=wrap;html=1;fillColor=#dae8fc;strokeColor=#6c8ebf;fontFamily=楷体;fontSize=15;" parent="1" vertex="1">
                    <mxGeometry x="128.5" y="400" width="40" height="20" as="geometry"/>
                </mxCell>
                <mxCell id="147" value="采购人步骤：" style="text;html=1;align=center;verticalAlign=middle;resizable=0;points=[];autosize=1;strokeColor=none;fillColor=none;fontSize=18;fontFamily=黑体;" parent="1" vertex="1">
                    <mxGeometry x="1" y="390" width="130" height="40" as="geometry"/>
                </mxCell>
                <mxCell id="148" value="代理机构步骤：" style="text;html=1;align=center;verticalAlign=middle;resizable=0;points=[];autosize=1;strokeColor=none;fillColor=none;fontSize=18;fontFamily=黑体;" parent="1" vertex="1">
                    <mxGeometry x="1" y="430" width="150" height="40" as="geometry"/>
                </mxCell>
                <mxCell id="149" value="供应商步骤：" style="text;html=1;align=center;verticalAlign=middle;resizable=0;points=[];autosize=1;strokeColor=none;fillColor=none;fontSize=18;fontFamily=黑体;" parent="1" vertex="1">
                    <mxGeometry x="1" y="470" width="130" height="40" as="geometry"/>
                </mxCell>
                <mxCell id="151" value="" style="rounded=1;whiteSpace=wrap;html=1;fillColor=#d5e8d4;strokeColor=#82b366;fontFamily=楷体;fontSize=15;" parent="1" vertex="1">
                    <mxGeometry x="151" y="440" width="40" height="20" as="geometry"/>
                </mxCell>
                <mxCell id="152" value="" style="rounded=1;whiteSpace=wrap;html=1;fillColor=#e1d5e7;strokeColor=#9673a6;fontFamily=楷体;fontSize=15;" parent="1" vertex="1">
                    <mxGeometry x="128.5" y="480" width="40" height="20" as="geometry"/>
                </mxCell>
                <mxCell id="153" value="步骤选择框：" style="text;html=1;align=center;verticalAlign=middle;resizable=0;points=[];autosize=1;strokeColor=none;fillColor=none;fontSize=18;fontFamily=黑体;" parent="1" vertex="1">
                    <mxGeometry x="0.5" y="510" width="130" height="40" as="geometry"/>
                </mxCell>
                <mxCell id="154" value="" style="rounded=1;whiteSpace=wrap;html=1;fillColor=#f5f5f5;strokeColor=#82b366;fontColor=#333333;fontFamily=楷体;fontSize=15;" parent="1" vertex="1">
                    <mxGeometry x="121" y="515" width="75" height="30" as="geometry"/>
                </mxCell>
                <mxCell id="157" value="" style="rounded=1;whiteSpace=wrap;html=1;fontFamily=楷体;fontSize=15;fillColor=#d5e8d4;strokeColor=#82b366;" parent="1" vertex="1">
                    <mxGeometry x="131" y="525" width="15" height="11" as="geometry"/>
                </mxCell>
                <mxCell id="159" value="" style="rounded=1;whiteSpace=wrap;html=1;fontFamily=楷体;fontSize=15;dashed=1;fillColor=#d5e8d4;strokeColor=#82b366;" parent="1" vertex="1">
                    <mxGeometry x="151" y="525" width="15" height="11" as="geometry"/>
                </mxCell>
                <mxCell id="160" value="" style="rounded=1;whiteSpace=wrap;html=1;fontFamily=楷体;fontSize=15;dashed=1;fillColor=#d5e8d4;strokeColor=#82b366;" parent="1" vertex="1">
                    <mxGeometry x="171" y="525" width="15" height="11" as="geometry"/>
                </mxCell>
                <mxCell id="161" value="" style="rhombus;whiteSpace=wrap;html=1;fontFamily=楷体;fontSize=15;fillColor=#e1d5e7;strokeColor=#9673a6;" parent="1" vertex="1">
                    <mxGeometry x="126" y="555" width="35" height="30" as="geometry"/>
                </mxCell>
                <mxCell id="162" value="条件判断框：" style="text;html=1;align=center;verticalAlign=middle;resizable=0;points=[];autosize=1;strokeColor=none;fillColor=none;fontSize=18;fontFamily=黑体;" parent="1" vertex="1">
                    <mxGeometry x="1" y="550" width="130" height="40" as="geometry"/>
                </mxCell>
            </root>
        </mxGraphModel>
    </diagram>
</mxfile>